# xmcd CD database file
#
# Track frame offsets:
#	150
#	19545
#	55391
#	88314
#	116982
#	155872
#
# Disc length: 2476 seconds
#
# Revision: 0
# Processed by: cddbd v1.5.2PL0 Copyright (c) Steve Scherf et al.
# Submitted via: CDex 2.18
#
DISCID=5109aa06
DTITLE=Dans Dans - Dans Dans
DYEAR=2012
DGENRE=Jazz
TTITLE0=Freedom Suite, Movement 2
TTITLE1=River Man
TTITLE2=Waterpoort
TTITLE3=El is a Sound of Joy
TTITLE4=Misterioso
TTITLE5=Lanquidity
EXTD=YEAR: 2012
EXTT0=
EXTT1=
EXTT2=
EXTT3=
EXTT4=
EXTT5=
PLAYORDER=
